<?xml version="1.0" encoding="utf-8"?>
<!-- Generator: Adobe Illustrator 24.3.0, SVG Export Plug-In . SVG Version: 6.00 Build 0)  -->
<svg version="1.1" id="Capa_1" xmlns="http://www.w3.org/2000/svg" xmlns:xlink="http://www.w3.org/1999/xlink" x="0px" y="0px"
	 viewBox="0 0 256 88" style="enable-background:new 0 0 256 88;" xml:space="preserve">
<style type="text/css">
	.st0{fill:#EE3641;}
</style>
<g>
	<path class="st0" d="M85.03,71.05c0-2.03,1.38-3.16,3-3.16c1.24,0,2.14,0.48,2.6,0.71v-2.47c-1.01-0.39-1.93-0.58-3.02-0.58
		c-4.31,0-5.92,3.11-5.92,5.46c0,2.58,1.73,5.46,6.01,5.46c1.54,0,2.4-0.35,3.04-0.6v-2.4c-1.13,0.55-1.68,0.76-2.56,0.76
		C85.86,74.25,85.03,72.5,85.03,71.05z"/>
	<path class="st0" d="M97.87,65.56c-3.11,0-5.8,1.93-5.8,5.44c0,2.56,1.61,5.48,5.69,5.48c4.08,0,5.8-2.72,5.8-5.46
		C103.56,67.8,101.28,65.56,97.87,65.56z M97.83,74.39c-1.61,0-2.42-1.41-2.42-3.39c0-1.61,0.62-3.34,2.37-3.34
		c1.5,0,2.44,1.15,2.44,3.34C100.22,73.63,98.96,74.39,97.83,74.39z"/>
	<path class="st0" d="M107.12,72.68c-1.04,0-1.91,0.85-1.91,1.91c0,1.01,0.85,1.89,1.91,1.89c1.06,0,1.89-0.88,1.89-1.89
		C109.01,73.53,108.15,72.68,107.12,72.68z"/>
	<path class="st0" d="M118.4,66c-0.53-0.16-1.4-0.44-2.53-0.44c-2.47,0-5.23,1.8-5.23,5.39c0,3.46,2.58,5.53,5.09,5.53
		c1.4,0,2.17-0.53,2.67-0.85v0.71h3.11V60.2h-3.11V66z M118.4,73.58c-0.39,0.3-1.06,0.81-2.05,0.81c-1.7,0-2.37-1.29-2.37-3.43
		c0-2.88,2-3.25,2.58-3.25c0.81,0,1.38,0.3,1.84,0.55V73.58z"/>
	<path class="st0" d="M128.89,65.56c-3.69,0-5.18,2.95-5.18,5.41c0,2.46,1.45,5.5,5.76,5.5c2.35,0,3.55-0.85,4.33-1.5v-2.03
		c-1.15,0.92-2.37,1.54-3.73,1.54c-2.72,0-2.97-2.3-3.04-3.02h6.96C133.98,68.42,132.67,65.56,128.89,65.56z M127.04,69.87
		c0.18-1.43,0.92-2.35,2.07-2.35c1.18,0,2.03,0.81,2.26,2.35H127.04z"/>
	<path class="st0" d="M140.57,69.89c-1.31-0.62-2.07-0.99-2.07-1.57c0-0.28,0.32-0.71,1.31-0.71c1.01,0,2,0.42,2.83,1.04v-2.4
		c-0.42-0.21-1.34-0.69-3.09-0.69c-3.16,0-4.01,1.84-4.01,3.13c0,1.96,1.5,2.72,2.21,3.06c1.77,0.88,2.37,1.15,2.37,1.77
		c0,0.41-0.44,0.81-1.43,0.81c-0.69,0-1.87-0.28-3.02-1.11v2.37c0.67,0.35,1.75,0.88,3.5,0.88c3.2,0,3.94-2.1,3.94-3.29
		C143.13,71.09,141.5,70.33,140.57,69.89z"/>
	<rect x="145.39" y="65.7" class="st0" width="3.11" height="10.64"/>
	
		<ellipse transform="matrix(0.7071 -0.7071 0.7071 0.7071 -0.7726 122.0544)" class="st0" cx="146.95" cy="61.96" rx="1.77" ry="1.76"/>
	<path class="st0" d="M154.02,65.89c-1.84,0.3-3.23,1.84-3.23,3.66c0,1.18,0.65,2.76,2.63,3.41c-0.81,0.3-1.82,0.71-1.82,1.84
		c0,0.83,0.58,1.2,0.99,1.45c-0.58,0.16-2.37,0.69-2.37,2.53c0,1.22,1.01,3.06,5.07,3.06c4.7,0,5.32-2.4,5.32-3.5
		c0-2.88-3.5-3.27-4.95-3.36c-0.37-0.02-1.2-0.11-1.2-0.71c0-0.53,0.51-0.64,1.87-0.88c2.83-0.48,3.69-2.21,3.69-3.55
		c0-0.99-0.41-1.68-0.64-2.05h1.52v-2.1H156C155.54,65.7,154.78,65.77,154.02,65.89z M155.51,77.52c0.37,0,2.23,0,2.23,1.08
		c0,1.2-1.96,1.2-2.49,1.2c-1.11,0-2.26-0.23-2.26-1.13C153,77.52,155.03,77.52,155.51,77.52z M157.06,69.6
		c0,1.29-0.99,1.8-1.68,1.8c-0.69,0-1.61-0.51-1.61-1.8c0-1.18,0.74-1.89,1.61-1.89C156.44,67.71,157.06,68.51,157.06,69.6z"/>
	<path class="st0" d="M169.16,65.56c-1.36,0-2.42,0.67-3.34,1.73V65.7h-3.11v10.64h3.11v-7.07c0.71-0.81,1.33-1.47,2.21-1.47
		c0.51,0,1.17,0.3,1.45,0.97c0.18,0.46,0.21,1.06,0.21,2v5.57h3.11v-5.69c0-0.74,0-2.26-0.58-3.32
		C171.67,66.32,170.54,65.56,169.16,65.56z"/>
	<polygon class="st0" points="140.87,38.76 147.08,38.76 147.08,31.97 153.86,31.97 153.86,25.76 147.08,25.76 147.08,18.97 
		140.87,18.97 140.87,25.76 134.08,25.76 134.08,31.97 140.87,31.97 	"/>
	<polygon class="st0" points="25.87,34.25 25.04,34.25 12.4,9.24 5.67,9.24 5.67,44.45 12.4,44.45 12.4,24.83 13.23,24.83 
		21.72,41.81 29.18,41.81 37.67,24.83 38.5,24.83 38.5,44.45 45.23,44.45 45.23,9.24 38.5,9.24 	"/>
	<path class="st0" d="M70.96,29.85c0-6.66-5.4-12.06-12.06-12.06h-8.13v5.95h7.77c3.15,0,5.7,2.55,5.7,5.7
		c-1.29-1.92-3.31-3.11-7.2-3.11c-6.32,0-9.27,4.56-9.27,9.32c0,4.76,2.95,9.32,9.27,9.32c3.88,0,5.9-1.24,7.2-3.11v2.59h10.1v-6.47
		h-3.37V29.85z M59.37,39.38c-3.52,0-4.87-1.66-4.87-3.73c0-2.07,1.35-3.73,4.87-3.73c3.52,0,4.87,1.66,4.87,3.73
		C64.23,37.72,62.89,39.38,59.37,39.38z"/>
	<path class="st0" d="M83.13,29.03h9.94v-1.18v-0.32v-9.75c-5.45,0-9.88,4.34-10.05,9.75h-0.05c-0.17-3.49-3.04-6.27-6.57-6.27v6.27
		v0.32v16.6h6.73V29.03z"/>
	<polygon class="st0" points="107.01,7.73 100.85,7.73 96.14,15.5 101.26,15.5 	"/>
	<rect x="95.36" y="17.78" class="st0" width="6.73" height="26.67"/>
	<path class="st0" d="M126.87,30.38c0-6.96-5.64-12.6-12.6-12.6h-7.6v5.95h7.77c3.15,0,5.7,2.55,5.7,5.7
		c-1.29-1.92-3.31-3.11-7.2-3.11c-6.32,0-9.27,4.56-9.27,9.32c0,4.76,2.95,9.32,9.27,9.32c3.88,0,5.9-1.24,7.2-3.11v2.59h13.94
		v-6.47h-7.21V30.38z M115.27,39.38c-3.52,0-4.87-1.66-4.87-3.73c0-2.07,1.35-3.73,4.87-3.73c3.52,0,4.87,1.66,4.87,3.73
		C120.14,37.72,118.79,39.38,115.27,39.38z"/>
	<path class="st0" d="M172.51,33.46V9.24H169h-3.23h-11.91v6.47h11.91v22.52h-11.91v6.21h7.65
		C167.58,44.45,172.51,39.53,172.51,33.46z"/>
	<path class="st0" d="M188.02,17.27c-8.39,0-12.89,5.7-12.89,13.83s4.51,13.88,12.89,13.88c8.39,0,12.89-5.75,12.89-13.88
		S196.41,17.27,188.02,17.27z M188.02,38.76c-4.56,0-6.16-1.97-6.16-7.66c0-5.7,1.61-7.61,6.16-7.61c4.56,0,6.16,1.92,6.16,7.61
		C194.19,36.79,192.58,38.76,188.02,38.76z"/>
	<path class="st0" d="M213.97,28.24c-4.14-0.88-4.82-1.61-4.82-2.9c0-1.19,0.88-1.86,2.74-1.86c2.85,0,6.94,0.83,10.72,2.69v-6.21
		c-2.54-1.76-6.73-2.69-10.2-2.69c-5.54,0-9.99,2.43-9.99,7.77c0,4.09,2.33,7.3,10.46,8.54c4.14,0.67,5.08,1.4,5.08,2.9
		c0,1.29-1.04,2.28-3.52,2.28c-3.83,0-7.3-0.93-12.01-3.88v6.78c3.78,2.54,7.46,3.31,11.5,3.31c6.06,0,10.77-3.05,10.77-8.34
		C224.69,31.5,221.74,29.85,213.97,28.24z"/>
	<path class="st0" d="M249.34,30.57c0-7.77-3.21-13.31-11.6-13.31c-8.6,0-11.81,5.95-11.81,13.88c0,5.38,1.71,13.83,13.67,13.83
		c1.97,0,3.94,0,7.97-0.93v-6.11c-3.57,0.83-5.9,0.83-7.46,0.83c-5.18,0-6.78-1.92-7.25-5.18h16.47V30.57z M232.72,28.66
		c0.21-3.47,1.71-5.18,4.92-5.18c3.31,0,4.76,1.55,4.97,5.18H232.72z"/>
	<polygon class="st0" points="245.92,7.73 239.76,7.73 235.05,15.5 240.18,15.5 	"/>
</g>
</svg>
